<svg version="1.1" xmlns="http://www.w3.org/2000/svg" xmlns:xlink="http://www.w3.org/1999/xlink" x="0px"
	 y="0px" viewBox="0 0 145.6 40.9" style="enable-background:new 0 0 145.6 40.9;" xml:space="preserve">
<style type="text/css">
	.st0{fill:#737373;}
</style>
<g>
	<g>
		<path class="st0" d="M42.5,0.2c-3.2-0.9-6.6,1-7.5,4.2L30.5,20L19.5,2.8C17.6,0,13.8-0.8,11,1.1c-1.2,0.8-2.1,2-2.5,3.4L0.2,33.1
			c-0.7,3.3,1.4,6.6,4.7,7.3c3,0.7,6-1,7.1-3.9l4.5-15.6l11.1,17.2c1.9,2.8,5.7,3.6,8.5,1.8c1.2-0.8,2.1-2,2.5-3.4l8.2-28.6
			C47.6,4.6,45.8,1.2,42.5,0.2z"/>
		<path class="st0" d="M92.6,0.2C89.4-0.7,86,1.2,85,4.4c0,0,0,0,0,0l-2.9,10.2H68.3l1.9-6.8c0.9-3.3-1-6.6-4.2-7.6
			c-3.3-0.9-6.6,1-7.6,4.2l0,0l-8.2,28.6c-0.9,3.3,1,6.6,4.2,7.6c3.3,0.9,6.6-1,7.6-4.2L65,26.3h13.8l-1.9,6.8
			c-0.8,3.3,1.2,6.6,4.5,7.4c3.1,0.8,6.3-1,7.3-4.1l8.2-28.6C97.7,4.6,95.9,1.2,92.6,0.2C92.6,0.2,92.6,0.2,92.6,0.2z"/>
		<path class="st0" d="M144.3,2.4c-2-2.7-5.9-3.2-8.6-1.2c0,0,0,0,0,0l-17.3,13.1l1.9-6.5c0.9-3.3-1-6.6-4.2-7.6
			c-3.3-0.9-6.6,1-7.6,4.2l-8.2,28.6c-0.9,3.3,1,6.6,4.2,7.6c3.3,0.9,6.6-1,7.6-4.2l3.5-12.3l0,0c0,0.1,0.1,0.1,0.2,0.2
			c0.1,0.1,0.1,0.2,0.2,0.3l13.3,14.3c1.1,1.3,2.8,2,4.5,2c3.4,0,6.1-2.7,6.1-6.1c0-1.6-0.6-3.1-1.6-4.2l-8.7-9.3L143.1,11
			C145.8,9,146.3,5.1,144.3,2.4z"/>
	</g>
</g>
</svg>
